<svg data-v-423bf9ae="" xmlns="http://www.w3.org/2000/svg" viewBox="0 0 357 91" class="iconLeft"><!----><!----><!----><g data-v-423bf9ae="" id="17339c08-c4ad-47f3-827a-63481e230a94" fill="#ffffff" transform="matrix(5.263158070853988,0,0,5.263158070853988,100.7815800517493,-4.225768090175045)"><path d="M3.92 10.68L3.92 10.68L3.92 10.68Q3.92 10.79 4.03 10.83L4.03 10.83L4.03 10.83Q4.19 10.65 4.49 10.51L4.49 10.51L4.49 10.51Q4.79 10.37 5.17 10.37L5.17 10.37L5.17 10.37Q5.89 10.37 6.36 10.79L6.36 10.79L6.36 10.79Q6.36 10.79 6.41 10.83L6.41 10.83L6.41 10.83Q6.49 10.79 6.49 10.66L6.49 10.66L6.49 10.66Q6.49 10.45 6.16 10.26L6.16 10.26L6.16 10.26Q5.77 10.05 5.16 10.05L5.16 10.05L5.16 10.05Q5.00 10.05 4.86 10.08L4.86 10.08L4.86 8.29L4.86 8.29Q4.86 8.00 4.66 8.00L4.66 8.00L4.66 8.00Q4.46 8.00 4.46 8.30L4.46 8.30L4.46 10.17L4.46 10.17Q3.92 10.39 3.92 10.68ZM4.48 13.92L4.48 13.92L4.48 13.92Q3.29 13.92 2.33 13.47L2.33 13.47L2.33 13.47Q1.37 13.02 0.79 12.09L0.79 12.09L0.79 12.09Q0.15 11.03 0.15 9.45L0.15 9.45L0.15 9.45Q0.15 7.87 0.81 6.79L0.81 6.79L0.81 6.79Q1.39 5.82 2.40 5.35L2.40 5.35L2.40 5.35Q3.41 4.87 4.57 4.87L4.57 4.87L4.57 4.87Q6.69 4.87 7.90 6.11L7.90 6.11L7.90 6.11Q9.11 7.36 9.11 9.36L9.11 9.36L9.11 9.36Q9.11 10.58 8.59 11.50L8.59 11.50L9.58 11.50L9.58 11.50Q9.82 12.24 9.82 12.90L9.82 12.90L9.82 12.90Q9.82 13.90 9.27 14.51L9.27 14.51L9.27 14.51Q8.72 15.11 7.72 15.11L7.72 15.11L7.72 15.11Q6.73 15.11 6.08 14.46L6.08 14.46L6.08 14.46Q5.43 13.81 5.02 12.40L5.02 12.40L4.98 12.40L4.98 12.40Q4.76 12.40 4.76 12.62L4.76 12.62L4.76 12.62Q4.76 13.03 5.22 13.88L5.22 13.88L5.22 13.88Q4.87 13.92 4.48 13.92ZM13.62 10.93L13.62 10.93L13.62 10.93Q13.70 10.93 13.79 10.86L13.79 10.86L13.79 10.86Q13.73 10.64 13.73 10.16L13.73 10.16L13.73 6.78L13.73 6.78Q14.45 6.34 15.47 6.34L15.47 6.34L15.47 6.34Q16.04 6.34 16.48 6.50L16.48 6.50L16.48 6.50Q16.91 6.65 17.14 6.90L17.14 6.90L17.14 10.47L17.14 10.47Q17.14 11.48 17.64 11.79L17.64 11.79L17.64 11.79Q17.64 11.83 17.64 11.92L17.64 11.92L17.64 12.04L17.64 12.04Q17.64 13.04 17.12 13.56L17.12 13.56L17.12 13.56Q16.64 14.03 15.80 14.03L15.80 14.03L15.80 14.03Q15.27 14.03 14.84 13.79L14.84 13.79L14.84 13.79Q14.42 13.56 14.21 13.10L14.21 13.10L14.21 13.10Q13.97 13.10 13.97 13.32L13.97 13.32L13.97 13.32Q13.97 13.48 14.13 13.64L14.13 13.64L14.13 13.64Q13.91 13.82 13.60 13.92L13.60 13.92L13.60 13.92Q13.30 14.03 12.70 14.03L12.70 14.03L12.70 14.03Q12.10 14.03 11.53 13.79L11.53 13.79L11.53 13.79Q10.83 13.49 10.45 12.87L10.45 12.87L10.45 12.87Q9.99 12.13 9.99 10.99L9.99 10.99L9.99 9.28L9.99 9.28Q9.65 8.67 9.65 7.94L9.65 7.94L9.65 7.94Q9.65 7.56 9.74 7.16L9.74 7.16L9.74 7.16Q9.84 6.75 10.05 6.44L10.05 6.44L11.55 6.44L11.55 6.44Q12.40 6.44 12.88 6.84L12.88 6.84L12.88 6.84Q13.36 7.24 13.36 8.05L13.36 8.05L13.36 10.27L13.36 10.27Q13.36 10.93 13.62 10.93ZM21.46 7.76L21.46 7.76L21.46 10.47L21.46 10.47Q21.46 11.48 21.95 11.79L21.95 11.79L21.95 11.79Q21.96 11.83 21.96 11.92L21.96 11.92L21.96 12.04L21.96 12.04Q21.96 13.05 21.41 13.56L21.41 13.56L21.41 13.56Q20.90 14.03 20.06 14.03L20.06 14.03L20.06 14.03Q19.22 14.03 18.67 13.56L18.67 13.56L18.67 13.56Q17.98 12.95 17.98 11.78L17.98 11.78L17.98 7.33L17.98 7.33Q18.10 7.25 18.25 7.19L18.25 7.19L18.25 7.19Q18.39 7.14 18.55 7.05L18.55 7.05L18.55 7.05Q18.25 6.90 18.01 6.53L18.01 6.53L18.01 6.53Q17.77 6.16 17.77 5.66L17.77 5.66L17.77 5.66Q17.77 4.80 18.34 4.25L18.34 4.25L18.34 4.25Q18.91 3.71 19.73 3.71L19.73 3.71L19.73 3.71Q20.56 3.71 21.11 4.26L21.11 4.26L21.11 4.26Q21.67 4.82 21.67 5.66L21.67 5.66L21.67 5.66Q21.67 6.34 21.25 6.85L21.25 6.85L21.25 6.85Q20.82 7.36 20.21 7.49L20.21 7.49L20.21 7.49Q20.21 7.75 20.41 7.75L20.41 7.75L20.41 7.75Q20.76 7.75 21.12 7.47L21.12 7.47L21.12 7.47Q21.40 7.68 21.46 7.76ZM28.86 8.19L28.86 8.19L28.86 8.19Q28.86 8.37 28.81 8.73L28.81 8.73L28.81 8.73Q28.75 9.08 28.68 9.29L28.68 9.29L28.68 9.29Q28.04 10.17 27.15 10.77L27.15 10.77L27.15 10.77Q26.28 10.81 25.87 10.94L25.87 10.94L25.87 10.94Q25.46 11.08 25.46 11.25L25.46 11.25L25.46 11.25Q25.46 11.36 25.54 11.42L25.54 11.42L25.54 11.42Q25.83 11.26 26.33 11.17L26.33 11.17L26.33 11.17Q26.84 11.07 27.30 11.07L27.30 11.07L28.62 11.07L28.62 11.07Q28.80 11.38 28.91 11.76L28.91 11.76L28.91 11.76Q29.02 12.14 29.02 12.43L29.02 12.43L29.02 12.43Q29.02 13.22 28.59 13.60L28.59 13.60L28.59 13.60Q28.25 13.91 27.65 13.91L27.65 13.91L22.78 13.91L22.78 13.91Q22.17 13.28 22.17 11.93L22.17 11.93L22.17 11.93Q22.17 11.44 22.35 10.76L22.35 10.76L22.35 10.76Q22.97 10.07 24.11 9.19L24.11 9.19L24.11 9.19Q24.34 9.02 24.62 8.78L24.62 8.78L24.62 8.78Q24.58 8.62 24.43 8.62L24.43 8.62L24.43 8.62Q24.40 8.62 24.34 8.63L24.34 8.63L24.34 8.63Q24.14 8.70 23.51 9.28L23.51 9.28L22.66 9.28L22.66 9.28Q22.26 8.62 22.26 7.86L22.26 7.86L22.26 7.86Q22.26 7.38 22.41 7.01L22.41 7.01L22.41 7.01Q22.56 6.64 22.78 6.44L22.78 6.44L28.42 6.44L28.42 6.44Q28.86 7.09 28.86 8.19ZM36.23 9.19L36.23 10.53L36.23 10.53Q36.23 11.02 36.34 11.32L36.34 11.32L36.34 11.32Q36.45 11.62 36.72 11.79L36.72 11.79L36.72 11.79Q36.73 11.83 36.73 11.92L36.73 11.92L36.73 12.04L36.73 12.04Q36.73 13.02 36.14 13.56L36.14 13.56L36.14 13.56Q35.62 14.03 34.86 14.03L34.86 14.03L34.86 14.03Q34.34 14.03 33.91 13.79L33.91 13.79L33.91 13.79Q33.48 13.54 33.29 13.08L33.29 13.08L33.29 13.08Q33.06 13.08 33.06 13.30L33.06 13.30L33.06 13.30Q33.06 13.49 33.30 13.73L33.30 13.73L33.30 13.73Q32.85 14.03 31.96 14.03L31.96 14.03L31.96 14.03Q30.69 14.03 29.94 13.35L29.94 13.35L29.94 13.35Q29.18 12.66 29.18 11.43L29.18 11.43L29.18 11.43Q29.18 10.19 29.98 9.52L29.98 9.52L29.98 9.52Q30.71 8.91 31.88 8.91L31.88 8.91L31.88 8.91Q32.27 8.91 32.64 8.96L32.64 8.96L32.64 8.96Q32.89 9.01 32.91 9.02L32.91 9.02L32.91 9.02Q32.93 8.95 32.93 8.90L32.93 8.90L32.93 8.90Q32.93 8.72 32.63 8.66L32.63 8.66L32.63 8.66Q32.33 8.60 31.84 8.60L31.84 8.60L31.84 8.60Q30.81 8.60 30.08 9.02L30.08 9.02L30.08 9.02Q29.74 8.45 29.74 7.58L29.74 7.58L29.74 7.58Q29.74 7.09 29.87 6.85L29.87 6.85L29.87 6.85Q30.36 6.62 31.12 6.45L31.12 6.45L31.12 6.45Q31.88 6.28 32.72 6.28L32.72 6.28L32.72 6.28Q34.45 6.28 35.34 7.03L35.34 7.03L35.34 7.03Q36.23 7.79 36.23 9.19L36.23 9.19ZM32.68 10.86L32.68 10.86L32.68 10.86Q32.40 10.86 32.40 11.12L32.40 11.12L32.40 11.12Q32.40 11.37 32.73 11.37L32.73 11.37L32.73 11.37Q32.96 11.37 33.07 11.26L33.07 11.26L33.07 11.26Q33.18 11.14 33.18 10.86L33.18 10.86L33.18 10.86Q33.18 10.86 32.68 10.86ZM48.10 9.17L48.08 10.53L48.08 10.53Q48.08 11.03 48.19 11.34L48.19 11.34L48.19 11.34Q48.30 11.66 48.57 11.83L48.57 11.83L48.57 11.83Q48.58 11.86 48.58 11.94L48.58 11.94L48.58 12.04L48.58 12.04Q48.58 12.98 48.03 13.51L48.03 13.51L48.03 13.51Q47.48 14.03 46.62 14.03L46.62 14.03L46.62 14.03Q45.75 14.03 45.23 13.56L45.23 13.56L45.23 13.56Q44.60 13.02 44.60 11.89L44.60 11.89L44.60 9.73L44.60 9.73Q44.60 9.27 44.30 9.27L44.30 9.27L44.30 9.27Q44.19 9.27 44.12 9.32L44.12 9.32L44.24 10.34L44.24 11.89L44.24 11.89Q44.24 12.82 44.55 13.30L44.55 13.30L44.55 13.30Q44.22 13.64 43.73 13.84L43.73 13.84L43.73 13.84Q43.24 14.03 42.74 14.03L42.74 14.03L42.74 14.03Q41.92 14.03 41.47 13.64L41.47 13.64L41.47 13.64Q40.92 13.16 40.92 12.13L40.92 12.13L40.92 9.73L40.92 9.73Q40.92 9.27 40.62 9.27L40.62 9.27L40.62 9.27Q40.50 9.27 40.43 9.32L40.43 9.32L40.56 10.34L40.56 12.15L40.56 12.15Q40.56 12.92 40.76 13.34L40.76 13.34L40.76 13.34Q40.09 14.03 38.88 14.03L38.88 14.03L38.88 14.03Q38.17 14.03 37.67 13.67L37.67 13.67L37.67 13.67Q37.11 13.25 37.11 12.54L37.11 12.54L37.11 9.28L37.11 9.28Q36.70 8.71 36.70 7.88L36.70 7.88L36.70 7.88Q36.70 7.05 37.11 6.44L37.11 6.44L38.75 6.44L38.75 6.44Q39.24 6.44 39.58 6.80L39.58 6.80L39.58 6.80Q39.28 7.08 39.28 7.27L39.28 7.27L39.28 7.27Q39.28 7.48 39.52 7.48L39.52 7.48L39.52 7.48Q39.82 6.96 40.35 6.65L40.35 6.65L40.35 6.65Q40.96 6.30 41.79 6.30L41.79 6.30L41.79 6.30Q42.42 6.30 42.89 6.57L42.89 6.57L42.89 6.57Q43.37 6.84 43.60 7.18L43.60 7.18L43.60 7.18Q43.92 6.75 44.44 6.52L44.44 6.52L44.44 6.52Q44.95 6.30 45.51 6.30L45.51 6.30L45.51 6.30Q46.75 6.30 47.43 7.07L47.43 7.07L47.43 7.07Q48.10 7.83 48.10 9.17L48.10 9.17Z"></path></g><!----><g data-v-423bf9ae="" id="23dd3ca8-0ee5-435e-93cb-645e39455eba" transform="matrix(1.0033338758680554,0,0,1.0033338758680554,247.03361733499912,-352.47340658232565)" stroke="none" fill="#EBC246"><switch><g><path d="M-164.4 409.4v3.7c0 5.3-4.2 9.6-9.4 9.8h-62c-1.8 0-3.4.8-4.5 2h63.2c.6 0 1.1.5 1.1 1.1s-.5 1.1-1.1 1.1h-64.4c-.1.5-.2 1-.2 1.6v.7h64.6c.6 0 1.1.5 1.1 1.1 0 .6-.5 1.1-1.1 1.1h-64.6v.7c0 .6.1 1.1.2 1.6h64.4c.6 0 1.1.5 1.1 1.1 0 .6-.5 1.1-1.1 1.1h-63.2c1.1 1.2 2.7 2 4.5 2h61.8c1.1 0 2 .9 2 2s-.9 2-2 2h-61.8c-5.4 0-9.9-4.4-9.9-9.9v-3.7c0-5.3 4.2-9.6 9.4-9.8h62c1.8 0 3.4-.8 4.5-2H-233c-.6 0-1.1-.5-1.1-1.1s.5-1.1 1.1-1.1h64.4c.1-.5.2-1 .2-1.6v-.7H-233c-.6 0-1.1-.5-1.1-1.1 0-.6.5-1.1 1.1-1.1h64.6v-.7c0-.6-.1-1.1-.2-1.6H-233c-.6 0-1.1-.5-1.1-1.1 0-.6.5-1.1 1.1-1.1h63.2c-1.1-1.2-2.7-2-4.5-2H-236c-1.1 0-2-.9-2-2s.9-2 2-2h25.4c-.4-.2-.7-.4-1-.6-2.3-1.7-3.9-3.9-5.3-6.3-1.5-2.7-2.6-5.5-3-8.5-.5-3.2-.3-6.4 1.3-9.4 1.5-2.9 4.1-4.6 7.2-5.5 2.5-.7 5-.8 7.6-.3.8.2 1.5.7 2.3.9 0-.3.1-.6.1-.9-.1-.6-.2-1.1-.4-1.7-.9-2-2.2-3.3-4.1-4.4-1.3-.7-2.5-1.4-3.9-1.9h-.2v.1c.1.1.2.1.3.2 1.5.9 2.9 1.8 4.3 2.9.9.8 1.6 1.8 2.2 3-.4.2-.7.3-1 .4-1.5.5-3 .3-4.4-.4-1.9-.9-3.3-2.4-4.4-4.2-1.7-3.1-2.1-6.3-1.2-9.7.1-.4.2-.8.4-1.1.1-.1.2-.3.3-.3.1 0 .3.2.4.3.9 1.6 2.2 2.8 3.9 3.5.8.3 1.8.4 2.7.6 1.1.2 2.2.4 3.2.9 1.5.8 2.6 1.9 3.2 3.5.4 1.4.2 2.7-.5 3.9-.3.5-.3.7 0 1.2 0 0 0 .1.1.1.4-1 1-2 1.7-3 .7-.9 1.6-1.7 2.5-2.5.5-.5 1.2-.6 1.9-.4.8.2 1 1 .5 1.6-.2.2-.4.4-.7.5-2.9 2-5 4.6-6.3 7.9.7-.1 1.5-.7 2.2-.9 2.6-.5 5.1-.4 7.6.3 3.1.9 5.6 2.5 7.2 5.5 1.6 3 1.8 6.1 1.3 9.4-.5 3-1.5 5.9-3 8.5-1.4 2.4-3 4.7-5.3 6.3-.3.2-.6.4-1 .6h17.7c5.4-.1 9.8 4.3 9.8 9.8z"></path></g></switch></g><!----></svg>